<svg width="19" height="21" viewBox="0 0 19 21" fill="none" xmlns="http://www.w3.org/2000/svg">
<path d="M18.1804 20.1228L16.9025 5.89192C16.8677 5.50329 16.5419 5.2056 16.1518 5.2056H13.5166V4.01709C13.5166 1.80207 11.7146 0 9.49969 0C7.28487 0 5.4831 1.80207 5.4831 4.01709V5.2056H2.84608C2.45594 5.2056 2.13022 5.50329 2.09535 5.89192L0.812462 20.1788C0.793568 20.3897 0.864119 20.5986 1.00693 20.7548C1.14974 20.911 1.35165 20.9999 1.5632 20.9999H17.4348C17.4354 20.9999 17.4362 20.9999 17.4368 20.9999C17.8532 20.9999 18.1905 20.6624 18.1905 20.2461C18.1904 20.2042 18.187 20.1629 18.1804 20.1228ZM6.99061 4.01709C6.99061 2.6333 8.11621 1.5075 9.49979 1.5075C10.8835 1.5075 12.0092 2.6333 12.0092 4.01709V5.2056H6.99061V4.01709ZM2.3877 19.4925L3.53521 6.71311H5.4831V8.06101C5.4831 8.47728 5.82048 8.81476 6.23685 8.81476C6.65323 8.81476 6.99061 8.47728 6.99061 8.06101V6.71311H12.0092V8.06101C12.0092 8.47728 12.3466 8.81476 12.7629 8.81476C13.1793 8.81476 13.5167 8.47728 13.5167 8.06101V6.71311H15.4628L16.6103 19.4925H2.3877Z" fill="white"/>
</svg>
