<svg width="35" height="36" viewBox="0 0 35 36" fill="none" xmlns="http://www.w3.org/2000/svg">
<g clip-path="url(#clip0_168_532)">
<path d="M33.0645 18.4464H30.1222V10.4391C30.1222 9.37365 29.2616 8.50688 28.2038 8.50688H23.7761V6.58717C23.7761 5.5542 22.9417 4.71387 21.9162 4.71387H1.85992C0.834395 4.71387 0 5.5542 0 6.58717V7.41318C0 7.69843 0.229551 7.92956 0.512695 7.92956C0.79584 7.92956 1.02539 7.69843 1.02539 7.41318V6.58717C1.02539 6.12373 1.39979 5.74663 1.85992 5.74663H21.9161C22.3762 5.74663 22.7506 6.12373 22.7506 6.58717V22.8507H1.02539V9.83433C1.02539 9.54908 0.79584 9.31795 0.512695 9.31795C0.229551 9.31795 0 9.54908 0 9.83433V27.3384C0 28.3713 0.834395 29.2117 1.85992 29.2117H3.03816C3.29595 30.6272 4.52983 31.7033 6.00865 31.7033C7.48747 31.7033 8.72136 30.6272 8.97914 29.2117H17.1349C17.418 29.2117 17.6476 28.9805 17.6476 28.6953C17.6476 28.41 17.418 28.1789 17.1349 28.1789H8.99056C8.76025 26.7303 7.51078 25.6199 6.00858 25.6199C4.50639 25.6199 3.25698 26.7303 3.02668 28.179H1.85992C1.39979 28.179 1.02539 27.8019 1.02539 27.3384V23.8835H22.7506V28.179H19.4865C19.2034 28.179 18.9738 28.4101 18.9738 28.6953C18.9738 28.9806 19.2034 29.2117 19.4865 29.2117H26.1356C26.3933 30.6273 27.6272 31.7034 29.106 31.7034C30.5847 31.7034 31.8187 30.6273 32.0765 29.2117H33.0815C34.1394 29.2117 34.9999 28.3449 34.9999 27.2795V20.3959C35 19.3209 34.1318 18.4464 33.0645 18.4464ZM6.00858 26.6527C7.10842 26.6527 8.00317 27.5539 8.00317 28.6617C8.00317 29.7694 7.10842 30.6707 6.00858 30.6707C4.90875 30.6707 4.01399 29.7694 4.01399 28.6617C4.01399 27.5539 4.90882 26.6527 6.00858 26.6527ZM29.1061 30.6706C28.0062 30.6706 27.1115 29.7694 27.1115 28.6616C27.1115 27.5539 28.0062 26.6527 29.1061 26.6527C30.2059 26.6527 31.1006 27.5539 31.1006 28.6616C31.1006 29.7694 30.2059 30.6706 29.1061 30.6706ZM33.9746 23.1957H32.6102C32.3276 23.1957 32.0975 22.964 32.0975 22.6793C32.0975 22.3945 32.3275 22.1629 32.6102 22.1629H33.9746V23.1957ZM33.9746 21.1301H32.6102C31.7622 21.1301 31.0721 21.8251 31.0721 22.6793C31.0721 23.5334 31.7621 24.2284 32.6102 24.2284H33.9746V27.2794C33.9746 27.7754 33.574 28.1789 33.0816 28.1789H32.088C31.8577 26.7303 30.6083 25.6199 29.1061 25.6199C27.6039 25.6199 26.3545 26.7303 26.1241 28.1789H23.776V9.53965H28.2037C28.6962 9.53965 29.0968 9.94311 29.0968 10.4391V10.5594H25.6642C25.3811 10.5594 25.1515 10.7905 25.1515 11.0758V18.9628C25.1515 19.2481 25.3811 19.4792 25.6642 19.4792H33.0645C33.5663 19.4792 33.9745 19.8905 33.9745 20.3958V21.1301H33.9746ZM29.0968 11.5922V18.4464H26.177V11.5922H29.0968Z" fill="#333333"/>
<path d="M26.8494 21.1301H25.6641C25.3809 21.1301 25.1514 21.3613 25.1514 21.6465C25.1514 21.9318 25.3809 22.1629 25.6641 22.1629H26.8494C27.1326 22.1629 27.3621 21.9318 27.3621 21.6465C27.3621 21.3613 27.1326 21.1301 26.8494 21.1301Z" fill="#333333"/>
<path d="M14.8953 13.1442C15.1784 13.1442 15.4079 12.913 15.4079 12.6278C15.4079 12.3425 15.1784 12.1114 14.8953 12.1114H12.8457C12.5626 12.1114 12.333 12.3425 12.333 12.6278V16.7577C12.333 17.0429 12.5626 17.2741 12.8457 17.2741H14.8953C15.1784 17.2741 15.4079 17.0429 15.4079 16.7577C15.4079 16.4724 15.1784 16.2413 14.8953 16.2413H13.3584V15.2091H14.8953C15.1784 15.2091 15.4079 14.978 15.4079 14.6928C15.4079 14.4075 15.1784 14.1764 14.8953 14.1764H13.3584V13.1442H14.8953Z" fill="#333333"/>
<path d="M18.927 13.1442C19.2102 13.1442 19.4397 12.913 19.4397 12.6278C19.4397 12.3425 19.2102 12.1114 18.927 12.1114H16.8774C16.5943 12.1114 16.3647 12.3425 16.3647 12.6278V16.7577C16.3647 17.0429 16.5943 17.2741 16.8774 17.2741H18.927C19.2102 17.2741 19.4397 17.0429 19.4397 16.7577C19.4397 16.4724 19.2102 16.2413 18.927 16.2413H17.3901V15.2091H18.927C19.2102 15.2091 19.4397 14.978 19.4397 14.6928C19.4397 14.4075 19.2102 14.1764 18.927 14.1764H17.3901V13.1442H18.927Z" fill="#333333"/>
<path d="M6.89818 13.1442C7.18133 13.1442 7.41088 12.913 7.41088 12.6278C7.41088 12.3425 7.18133 12.1114 6.89818 12.1114H4.84863C4.56549 12.1114 4.33594 12.3425 4.33594 12.6278V16.7577C4.33594 17.0429 4.56549 17.2741 4.84863 17.2741C5.13178 17.2741 5.36133 17.0429 5.36133 16.7577V15.2091H6.89818C7.18133 15.2091 7.41088 14.978 7.41088 14.6928C7.41088 14.4075 7.18133 14.1764 6.89818 14.1764H5.36133V13.1442H6.89818Z" fill="#333333"/>
<path d="M11.3757 14.6928V12.6278C11.3757 12.3426 11.1462 12.1115 10.863 12.1115H8.81348C8.53033 12.1115 8.30078 12.3426 8.30078 12.6278V16.7577C8.30078 17.043 8.53033 17.2741 8.81348 17.2741C9.09662 17.2741 9.32617 17.043 9.32617 16.7577V15.3673L10.4365 17.0442C10.5352 17.1935 10.6978 17.2742 10.8635 17.2742C10.9613 17.2742 11.06 17.2461 11.1475 17.1874C11.383 17.0291 11.4467 16.7085 11.2896 16.4712L10.454 15.2092H10.863C11.1462 15.2092 11.3757 14.978 11.3757 14.6928ZM10.3503 14.1764H9.32617V13.1442H10.3503V14.1764Z" fill="#333333"/>
</g>
<defs>
<clipPath id="clip0_168_532">
<rect width="35" height="35.2518" fill="white" transform="translate(0 0.582733)"/>
</clipPath>
</defs>
</svg>
